<svg width="41" height="41" viewBox="0 0 41 41" fill="none" xmlns="http://www.w3.org/2000/svg">
<circle cx="20.5" cy="20.5" r="20.5" fill="black"/>
<path d="M26 31C25.1667 31 24.4583 30.7083 23.875 30.125C23.2917 29.5417 23 28.8333 23 28C23 27.9 23.025 27.6667 23.075 27.3L16.05 23.2C15.7833 23.45 15.475 23.646 15.125 23.788C14.775 23.93 14.4 24.0007 14 24C13.1667 24 12.4583 23.7083 11.875 23.125C11.2917 22.5417 11 21.8333 11 21C11 20.1667 11.2917 19.4583 11.875 18.875C12.4583 18.2917 13.1667 18 14 18C14.4 18 14.775 18.071 15.125 18.213C15.475 18.355 15.7833 18.5507 16.05 18.8L23.075 14.7C23.0417 14.5833 23.021 14.471 23.013 14.363C23.005 14.255 23.0007 14.134 23 14C23 13.1667 23.2917 12.4583 23.875 11.875C24.4583 11.2917 25.1667 11 26 11C26.8333 11 27.5417 11.2917 28.125 11.875C28.7083 12.4583 29 13.1667 29 14C29 14.8333 28.7083 15.5417 28.125 16.125C27.5417 16.7083 26.8333 17 26 17C25.6 17 25.225 16.929 24.875 16.787C24.525 16.645 24.2167 16.4493 23.95 16.2L16.925 20.3C16.9583 20.4167 16.9793 20.5293 16.988 20.638C16.9967 20.7467 17.0007 20.8673 17 21C16.9993 21.1327 16.9953 21.2537 16.988 21.363C16.9807 21.4723 16.9597 21.5847 16.925 21.7L23.95 25.8C24.2167 25.55 24.525 25.3543 24.875 25.213C25.225 25.0717 25.6 25.0007 26 25C26.8333 25 27.5417 25.2917 28.125 25.875C28.7083 26.4583 29 27.1667 29 28C29 28.8333 28.7083 29.5417 28.125 30.125C27.5417 30.7083 26.8333 31 26 31Z" fill="white"/>
</svg>
