<svg width="40" height="72" viewBox="0 0 40 72" fill="none" xmlns="http://www.w3.org/2000/svg">
<path d="M19.9993 3C8.95231 3 0 12.053 0 23.2161C0 32.3661 13.4294 58.6067 18.2788 67.7842C19.0179 69.1829 20.9807 69.1829 21.7199 67.7842C26.5696 58.6068 40 32.3661 40 23.2161C40 12.053 31.042 3 19.9993 3Z" fill="#9575CD"/>
<circle cx="20" cy="23" r="16" fill="#FAFAFA"/>
<path d="M29.5369 20.136L28.6909 23.433C28.2609 25.109 27.3849 26.288 26.3549 27.118C26.5739 25.974 26.5689 24.7 26.2109 23.304L25.3469 19.934L25.1969 19.35C25.3856 19.2672 25.597 19.2517 25.7959 19.306C26.1739 19.407 26.4039 19.712 26.4329 20.008C26.4521 20.206 26.5492 20.3882 26.7028 20.5146C26.8564 20.641 27.0539 20.7013 27.2519 20.682C27.4498 20.6628 27.6321 20.5657 27.7585 20.4121C27.8849 20.2585 27.9451 20.061 27.9259 19.863C27.8349 18.921 27.1429 18.114 26.1839 17.857C25.7169 17.7304 25.2227 17.7478 24.7659 17.907L24.7489 17.863C24.5249 17.267 24.1969 16.634 23.5779 16.17C23.2384 15.9158 22.8555 15.7253 22.4479 15.608C21.6889 15.393 20.9849 15.532 20.3839 15.732C19.8259 15.917 19.1739 16.222 18.4599 16.557L18.3879 16.591C17.2029 17.146 16.7289 17.364 16.2439 17.519C16.0972 17.5657 15.9485 17.608 15.7979 17.646L16.1249 16.379C16.5649 14.66 16.7859 13.801 17.3609 13.369C17.5539 13.224 17.7709 13.117 17.9989 13.052C18.6829 12.858 19.4599 13.222 21.0139 13.949C22.1639 14.489 22.7399 14.758 23.3399 14.949C23.5492 15.015 23.7599 15.0737 23.9719 15.125C24.5839 15.274 25.2109 15.341 26.4649 15.476C28.1589 15.658 29.0049 15.749 29.5049 16.274C29.6719 16.451 29.8079 16.657 29.9049 16.883C30.1969 17.558 29.9769 18.417 29.5369 20.136Z" fill="#9575CD"/>
<path fill-rule="evenodd" clip-rule="evenodd" d="M24.7576 23.677L23.9126 20.379C23.4726 18.66 23.2526 17.801 22.6766 17.369C22.4846 17.226 22.2686 17.1187 22.0386 17.052C21.3546 16.858 20.5786 17.222 19.0236 17.949C17.8736 18.489 17.2976 18.758 16.6976 18.949C16.4889 19.0146 16.2782 19.0733 16.0656 19.125C15.4546 19.274 14.8276 19.341 13.5726 19.476C11.8786 19.658 11.0326 19.749 10.5326 20.274C10.3648 20.4522 10.2295 20.6583 10.1326 20.883C9.84063 21.558 10.0606 22.417 10.5016 24.136L11.3466 27.433C12.3396 31.309 15.6426 32.529 17.8626 32.906C18.5396 33.021 18.8786 33.078 19.9066 32.79C20.9346 32.502 21.2006 32.276 21.7316 31.822C23.4736 30.335 25.7516 27.552 24.7576 23.677ZM14.0046 24.368C14.0336 24.072 14.2646 23.768 14.6426 23.666C15.0216 23.564 15.3726 23.713 15.5456 23.956C15.6614 24.1178 15.8367 24.227 16.0329 24.2595C16.2292 24.2921 16.4303 24.2453 16.5921 24.1295C16.7539 24.0138 16.8631 23.8385 16.8956 23.6422C16.9282 23.446 16.8814 23.2448 16.7656 23.083C16.2156 22.313 15.2136 21.96 14.2546 22.217C13.2956 22.474 12.6036 23.281 12.5116 24.223C12.5021 24.3211 12.512 24.42 12.5407 24.5142C12.5694 24.6084 12.6164 24.6961 12.679 24.7721C12.7416 24.8482 12.8186 24.9111 12.9055 24.9575C12.9924 25.0038 13.0876 25.0325 13.1856 25.042C13.2837 25.0515 13.3826 25.0417 13.4768 25.0129C13.571 24.9842 13.6587 24.9372 13.7347 24.8746C13.8108 24.8121 13.8738 24.7351 13.9201 24.6482C13.9664 24.5613 13.9951 24.4661 14.0046 24.368ZM19.8006 22.815C19.8296 22.519 20.0606 22.215 20.4386 22.113C20.8176 22.011 21.1686 22.16 21.3416 22.402C21.3979 22.4847 21.47 22.5553 21.5539 22.6096C21.6378 22.664 21.7317 22.701 21.8301 22.7186C21.9285 22.7361 22.0294 22.7338 22.1269 22.7118C22.2244 22.6898 22.3166 22.6485 22.3979 22.5904C22.4792 22.5323 22.5481 22.4585 22.6005 22.3733C22.6529 22.2882 22.6877 22.1935 22.703 22.0947C22.7182 21.9959 22.7136 21.895 22.6893 21.7981C22.665 21.7011 22.6216 21.61 22.5616 21.53C22.0116 20.76 21.0096 20.407 20.0506 20.664C19.0916 20.921 18.3996 21.727 18.3076 22.67C18.2884 22.868 18.3486 23.0655 18.475 23.2191C18.6014 23.3727 18.7836 23.4698 18.9816 23.489C19.1796 23.5083 19.3771 23.448 19.5307 23.3216C19.6843 23.1952 19.7814 23.013 19.8006 22.815ZM21.6466 26.629C21.8049 26.7473 21.9101 26.9232 21.9394 27.1185C21.9687 27.3138 21.9198 27.5129 21.8032 27.6723C21.6867 27.8318 21.5119 27.9389 21.3169 27.9703C21.1219 28.0017 20.9223 27.9549 20.7616 27.84L20.7516 27.834C20.5994 27.7464 20.4364 27.6791 20.2666 27.634C19.9066 27.536 19.3376 27.471 18.5816 27.674C17.8256 27.876 17.3656 28.217 17.1016 28.482C16.9772 28.606 16.8696 28.7459 16.7816 28.898L16.7766 28.908C16.7368 28.9981 16.6796 29.0795 16.6083 29.1474C16.537 29.2154 16.453 29.2687 16.3611 29.3042C16.2692 29.3397 16.1712 29.3568 16.0728 29.3545C15.9743 29.3521 15.8772 29.3304 15.7871 29.2905C15.697 29.2507 15.6157 29.1935 15.5477 29.1222C15.4797 29.0509 15.4265 28.9669 15.3909 28.875C15.3554 28.7831 15.3384 28.6851 15.3407 28.5867C15.3431 28.4882 15.3648 28.3911 15.4046 28.301L16.0926 28.599C15.4046 28.301 15.4056 28.299 15.4056 28.299L15.4076 28.294L15.4116 28.285L15.4216 28.263L15.4546 28.199C15.4813 28.147 15.5196 28.0817 15.5696 28.003C15.6696 27.847 15.8216 27.643 16.0376 27.425C16.4746 26.985 17.1626 26.501 18.1936 26.225C19.2246 25.948 20.0636 26.025 20.6606 26.187C20.9566 26.267 21.1906 26.367 21.3546 26.453C21.4431 26.499 21.5292 26.5494 21.6126 26.604L21.6326 26.619L21.6406 26.624L21.6436 26.627H21.6456L21.6466 26.629Z" fill="#9575CD"/>
</svg>
