<svg width="40" height="72" viewBox="0 0 40 72" fill="none" xmlns="http://www.w3.org/2000/svg">
<path d="M19.9993 3C8.95231 3 0 12.053 0 23.2161C0 32.3661 13.4294 58.6067 18.2788 67.7842C19.0179 69.1829 20.9807 69.1829 21.7199 67.7842C26.5696 58.6068 40 32.3661 40 23.2161C40 12.053 31.042 3 19.9993 3Z" fill="#FFD700"/>
<circle cx="20" cy="23" r="16" fill="#FAFAFA"/>
<path d="M9 30V15H11V25H19V17H27C28.1 17 29.0417 17.3917 29.825 18.175C30.6083 18.9583 31 19.9 31 21V30H29V27H11V30H9ZM15 24C14.1667 24 13.4583 23.7083 12.875 23.125C12.2917 22.5417 12 21.8333 12 21C12 20.1667 12.2917 19.4583 12.875 18.875C13.4583 18.2917 14.1667 18 15 18C15.8333 18 16.5417 18.2917 17.125 18.875C17.7083 19.4583 18 20.1667 18 21C18 21.8333 17.7083 22.5417 17.125 23.125C16.5417 23.7083 15.8333 24 15 24Z" fill="#FFD700"/>
</svg>
