<svg width="48" height="48" viewBox="0 0 48 48" fill="none" xmlns="http://www.w3.org/2000/svg">
<path d="M28.1777 39.8197L18.6666 36.4394L10.4 39.6845C10.1037 39.8047 9.81451 39.8426 9.53244 39.7981C9.25037 39.7536 8.99141 39.6557 8.75555 39.5042C8.5197 39.3528 8.33481 39.1503 8.20089 38.8967C8.06696 38.6431 8 38.3498 8 38.0169V12.7324C8 12.3418 8.11141 11.9962 8.33422 11.6958C8.55704 11.3953 8.86044 11.17 9.24444 11.0197L17.5111 8.18028C17.6889 8.12019 17.8744 8.07512 18.0675 8.04507C18.2607 8.01502 18.4604 8 18.6666 8C18.8729 8 19.0732 8.01502 19.2675 8.04507C19.4619 8.07512 19.6468 8.12019 19.8222 8.18028L29.3333 11.5606L37.5999 8.31549C37.8962 8.19531 38.1854 8.15805 38.4675 8.20372C38.7496 8.24939 39.0085 8.34674 39.2444 8.49577C39.4802 8.64481 39.6657 8.84792 39.8008 9.10513C39.9359 9.36233 40.0023 9.65499 39.9999 9.9831V35.2676C39.9999 35.6582 39.8891 36.0038 39.6675 36.3042C39.4459 36.6047 39.1419 36.83 38.7555 36.9803L30.4888 39.8197C30.3111 39.8798 30.1262 39.9249 29.9342 39.9549C29.7422 39.985 29.5419 40 29.3333 40C29.1247 40 28.925 39.985 28.7342 39.9549C28.5434 39.9249 28.3579 39.8798 28.1777 39.8197ZM27.5555 35.8084V14.7155L20.4444 12.1915V33.2845L27.5555 35.8084Z" fill="#212121"/>
</svg>
