<svg width="48" height="48" viewBox="0 0 48 48" fill="none" xmlns="http://www.w3.org/2000/svg">
<path d="M12.6864 31.5956C9.7904 32.4867 8 33.7174 8 35.077C8 37.7962 15.1632 40.0001 24 40.0001C32.8368 40.0001 40 37.7962 40 35.077C40 33.7174 38.2088 32.4867 35.3136 31.5956" stroke="#212121" stroke-width="2" stroke-linecap="round" stroke-linejoin="round"/>
<path d="M23.9996 33.4359C23.9996 33.4359 34.3996 26.4648 34.3996 18.4057C34.3996 12.6589 29.7436 8 23.9996 8C18.2556 8 13.5996 12.6589 13.5996 18.4057C13.5996 26.4648 23.9996 33.4359 23.9996 33.4359Z" stroke="#212121" stroke-width="2" stroke-linejoin="round"/>
<path d="M24 22.7692C25.0609 22.7692 26.0783 22.337 26.8284 21.5676C27.5786 20.7982 28 19.7547 28 18.6667C28 17.5786 27.5786 16.5351 26.8284 15.7657C26.0783 14.9963 25.0609 14.5641 24 14.5641C22.9391 14.5641 21.9217 14.9963 21.1716 15.7657C20.4214 16.5351 20 17.5786 20 18.6667C20 19.7547 20.4214 20.7982 21.1716 21.5676C21.9217 22.337 22.9391 22.7692 24 22.7692Z" stroke="#212121" stroke-width="2" stroke-linejoin="round"/>
</svg>
