<svg width="40" height="72" viewBox="0 0 40 72" fill="none" xmlns="http://www.w3.org/2000/svg">
<path d="M19.9993 3C8.95231 3 0 12.053 0 23.2161C0 32.3661 13.4294 58.6067 18.2788 67.7842C19.0179 69.1829 20.9807 69.1829 21.7199 67.7842C26.5696 58.6068 40 32.3661 40 23.2161C40 12.053 31.042 3 19.9993 3Z" fill="#4DB6AC"/>
<circle cx="20" cy="23" r="16" fill="#FAFAFA"/>
<path d="M26.2497 26.3333H15.4163L13.333 18H28.333L26.2497 26.3333Z" fill="#4DB6AC"/>
<path d="M11.25 15.5H12.7083L13.3333 18M13.3333 18L15.4167 26.3333H26.25L28.3333 18H13.3333Z" stroke="#4DB6AC" stroke-width="2" stroke-linecap="round" stroke-linejoin="round"/>
<path d="M15.417 30.5C16.1073 30.5 16.667 29.9404 16.667 29.25C16.667 28.5596 16.1073 28 15.417 28C14.7266 28 14.167 28.5596 14.167 29.25C14.167 29.9404 14.7266 30.5 15.417 30.5Z" stroke="#4DB6AC" stroke-width="2" stroke-linecap="round" stroke-linejoin="round"/>
<path d="M26.25 30.5C26.9404 30.5 27.5 29.9404 27.5 29.25C27.5 28.5596 26.9404 28 26.25 28C25.5596 28 25 28.5596 25 29.25C25 29.9404 25.5596 30.5 26.25 30.5Z" stroke="#4DB6AC" stroke-width="2" stroke-linecap="round" stroke-linejoin="round"/>
</svg>
