<svg width="40" height="72" viewBox="0 0 40 72" fill="none" xmlns="http://www.w3.org/2000/svg">
<path d="M19.9993 3C8.95231 3 0 12.053 0 23.2161C0 32.3661 13.4294 58.6067 18.2788 67.7842C19.0179 69.1829 20.9807 69.1829 21.7199 67.7842C26.5696 58.6068 40 32.3661 40 23.2161C40 12.053 31.042 3 19.9993 3Z" fill="#212121"/>
<circle cx="20" cy="23" r="16" fill="#FAFAFA"/>
<mask id="mask0_822_1067" style="mask-type:luminance" maskUnits="userSpaceOnUse" x="11" y="13" width="19" height="19">
<path d="M12.625 17.5125V29.9375C12.625 30.1696 12.7172 30.3921 12.8813 30.5562C13.0454 30.7203 13.2679 30.8125 13.5 30.8125H27.5C27.7321 30.8125 27.9546 30.7203 28.1187 30.5562C28.2828 30.3921 28.375 30.1696 28.375 29.9375V17.5125H12.625Z" fill="white" stroke="white" stroke-width="2" stroke-linejoin="round"/>
<path d="M28.375 17.5125L25.8957 14.1875H15.1043L12.625 17.5125" stroke="white" stroke-width="2" stroke-linecap="round" stroke-linejoin="round"/>
<path d="M23.8054 20.4C23.8054 22.2366 22.3258 23.725 20.5001 23.725C18.6744 23.725 17.1943 22.2366 17.1943 20.4" stroke="black" stroke-width="2" stroke-linecap="round" stroke-linejoin="round"/>
</mask>
<g mask="url(#mask0_822_1067)">
<path d="M10 12H30V32H10V12Z" fill="#212121"/>
</g>
</svg>
