<svg width="40" height="72" viewBox="0 0 40 72" fill="none" xmlns="http://www.w3.org/2000/svg">
<path d="M19.9993 3C8.95231 3 0 12.053 0 23.2161C0 32.3661 13.4294 58.6067 18.2788 67.7842C19.0179 69.1829 20.9807 69.1829 21.7199 67.7842C26.5696 58.6068 40 32.3661 40 23.2161C40 12.053 31.042 3 19.9993 3Z" fill="#8BC34A"/>
<circle cx="20" cy="23" r="16" fill="#FAFAFA"/>
<path d="M18.2135 28.25H13.0385C12.6385 28.25 12.3385 28.075 12.1385 27.725C11.9385 27.375 11.9551 27.0333 12.1885 26.7L15.1635 22.25H15.0885C14.6885 22.25 14.3925 22.071 14.2005 21.713C14.0085 21.355 14.0295 21.009 14.2635 20.675L19.3385 13.425C19.4385 13.2917 19.5635 13.1877 19.7135 13.113C19.8635 13.0383 20.0135 13.0007 20.1635 13C20.3135 12.9993 20.4635 13.037 20.6135 13.113C20.7635 13.189 20.8885 13.293 20.9885 13.425L26.0635 20.675C26.2968 21.0083 26.3178 21.3543 26.1265 21.713C25.9351 22.0717 25.6391 22.2507 25.2385 22.25H25.1635L28.1385 26.7C28.3718 27.0333 28.3885 27.375 28.1885 27.725C27.9885 28.075 27.6885 28.25 27.2885 28.25H22.1135V31.25C22.1135 31.5333 22.0178 31.771 21.8265 31.963C21.6351 32.155 21.3975 32.2507 21.1135 32.25H19.2135C18.9301 32.25 18.6928 32.154 18.5015 31.962C18.3101 31.77 18.2141 31.5327 18.2135 31.25V28.25Z" fill="#8BC34A"/>
</svg>
