<svg width="48" height="48" viewBox="0 0 48 48" fill="none" xmlns="http://www.w3.org/2000/svg">
<path d="M36.1905 23.2381H33.9048V17.1429C33.9048 16.3346 33.5837 15.5594 33.0121 14.9879C32.4406 14.4163 31.6654 14.0952 30.8571 14.0952H24.7619V11.8095C24.7619 10.7992 24.3605 9.83021 23.6461 9.11578C22.9317 8.40136 21.9627 8 20.9524 8C19.942 8 18.9731 8.40136 18.2586 9.11578C17.5442 9.83021 17.1429 10.7992 17.1429 11.8095V14.0952H11.0476C10.2393 14.0952 9.46417 14.4163 8.89263 14.9879C8.32109 15.5594 8 16.3346 8 17.1429V22.9333H10.2857C12.5714 22.9333 14.4 24.7619 14.4 27.0476C14.4 29.3333 12.5714 31.1619 10.2857 31.1619H8V36.9524C8 37.7607 8.32109 38.5358 8.89263 39.1074C9.46417 39.6789 10.2393 40 11.0476 40H16.8381V37.7143C16.8381 35.4286 18.6667 33.6 20.9524 33.6C23.2381 33.6 25.0667 35.4286 25.0667 37.7143V40H30.8571C31.6654 40 32.4406 39.6789 33.0121 39.1074C33.5837 38.5358 33.9048 37.7607 33.9048 36.9524V30.8571H36.1905C37.2008 30.8571 38.1698 30.4558 38.8842 29.7414C39.5986 29.0269 40 28.058 40 27.0476C40 26.0373 39.5986 25.0683 38.8842 24.3539C38.1698 23.6395 37.2008 23.2381 36.1905 23.2381Z" fill="#212121"/>
</svg>
