<svg width="48" height="77" viewBox="0 0 48 77" fill="none" xmlns="http://www.w3.org/2000/svg">
<g filter="url(#filter0_d_640_762)">
<path d="M23.9993 3C12.9523 3 4 12.053 4 23.2161C4 32.3661 17.4294 58.6067 22.2788 67.7842C23.0179 69.1829 24.9807 69.1829 25.7199 67.7842C30.5696 58.6068 44 32.3661 44 23.2161C44 12.053 35.042 3 23.9993 3Z" fill="#FF6F61"/>
<circle cx="24" cy="23" r="16" fill="#FAFAFA"/>
<path fill-rule="evenodd" clip-rule="evenodd" d="M30.4101 14.287C30.4864 14.3939 30.5409 14.5148 30.5705 14.6427C30.6001 14.7707 30.6042 14.9032 30.5825 15.0328C30.5609 15.1623 30.5139 15.2863 30.4444 15.3977C30.3748 15.5091 30.284 15.6057 30.1771 15.682L28.0761 17.183C27.7529 17.4135 27.5072 17.7364 27.3712 18.1093C27.2351 18.4822 27.2152 18.8876 27.3141 19.272L30.6571 15.929C30.7493 15.8335 30.8597 15.7573 30.9817 15.7049C31.1037 15.6525 31.2349 15.6249 31.3677 15.6237C31.5005 15.6226 31.6321 15.6479 31.755 15.6982C31.8779 15.7484 31.9896 15.8227 32.0835 15.9166C32.1774 16.0105 32.2516 16.1221 32.3019 16.245C32.3522 16.3679 32.3775 16.4996 32.3763 16.6324C32.3752 16.7652 32.3476 16.8964 32.2952 17.0184C32.2428 17.1404 32.1666 17.2507 32.0711 17.343L28.7281 20.686C29.1125 20.7848 29.5178 20.7649 29.8907 20.6289C30.2636 20.4929 30.5866 20.2471 30.8171 19.924L32.3181 17.823C32.475 17.6147 32.7071 17.476 32.9649 17.4364C33.2226 17.3968 33.4857 17.4595 33.6979 17.6111C33.9101 17.7626 34.0547 17.9911 34.1009 18.2478C34.1471 18.5044 34.0911 18.769 33.9451 18.985L32.4451 21.087C31.8694 21.8927 31.0131 22.454 30.0446 22.6605C29.0761 22.867 28.0654 22.7038 27.2111 22.203L25.4751 23.939L30.2781 28.743C30.4602 28.9316 30.561 29.1842 30.5587 29.4464C30.5565 29.7086 30.4513 29.9594 30.2659 30.1448C30.0805 30.3302 29.8297 30.4354 29.5675 30.4377C29.3053 30.4399 29.0527 30.3391 28.8641 30.157L24.0611 25.354L19.3431 30.071C19.2508 30.1665 19.1405 30.2427 19.0185 30.2951C18.8965 30.3475 18.7652 30.3751 18.6325 30.3762C18.4997 30.3774 18.368 30.3521 18.2451 30.3018C18.1222 30.2515 18.0106 30.1773 17.9167 30.0834C17.8228 29.9895 17.7485 29.8778 17.6982 29.7549C17.648 29.632 17.6227 29.5004 17.6238 29.3676C17.625 29.2348 17.6526 29.1036 17.705 28.9816C17.7574 28.8596 17.8336 28.7492 17.9291 28.657L22.6461 23.939L21.0861 22.379L19.6721 23.793C19.4845 23.9805 19.2302 24.0858 18.9651 24.0858C18.6999 24.0858 18.4456 23.9805 18.2581 23.793L16.0531 21.589C15.311 20.8468 14.8213 19.89 14.6533 18.8541C14.4854 17.8181 14.6476 16.7556 15.1171 15.817C15.3051 15.441 15.5201 15.102 15.9761 15.027C16.1324 15.0017 16.2926 15.0138 16.4433 15.0625C16.594 15.1112 16.7311 15.195 16.8431 15.307L21.7901 20.254L21.7941 20.258L24.0621 22.526L25.7981 20.79C25.2975 19.9358 25.1345 18.9253 25.341 17.957C25.5475 16.9887 26.1086 16.1327 26.9141 15.557L29.0161 14.056C29.2318 13.9018 29.5 13.8396 29.7616 13.8831C30.0232 13.9266 30.2568 14.0722 30.4111 14.288L30.4101 14.287Z" fill="#FF6F61"/>
</g>
<defs>
<filter id="filter0_d_640_762" x="0" y="0" width="48" height="80" filterUnits="userSpaceOnUse" color-interpolation-filters="sRGB">
<feFlood flood-opacity="0" result="BackgroundImageFix"/>
<feColorMatrix in="SourceAlpha" type="matrix" values="0 0 0 0 0 0 0 0 0 0 0 0 0 0 0 0 0 0 127 0" result="hardAlpha"/>
<feOffset dy="4"/>
<feGaussianBlur stdDeviation="2"/>
<feComposite in2="hardAlpha" operator="out"/>
<feColorMatrix type="matrix" values="0 0 0 0 0 0 0 0 0 0 0 0 0 0 0 0 0 0 0.25 0"/>
<feBlend mode="normal" in2="BackgroundImageFix" result="effect1_dropShadow_640_762"/>
<feBlend mode="normal" in="SourceGraphic" in2="effect1_dropShadow_640_762" result="shape"/>
</filter>
</defs>
</svg>
