<svg width="48" height="48" viewBox="0 0 48 48" fill="none" xmlns="http://www.w3.org/2000/svg">
<path d="M24 23.4067L21.2375 25.4247C21.075 25.554 20.9125 25.5607 20.75 25.4448C20.5875 25.3289 20.5333 25.1799 20.5875 24.9978L21.6438 21.7379L18.8 19.5647C18.6646 19.4353 18.624 19.2868 18.6781 19.1192C18.7323 18.9515 18.8542 18.8672 19.0437 18.8662H22.5375L23.5938 15.6839C23.6479 15.5028 23.7833 15.4123 24 15.4123C24.2167 15.4123 24.3521 15.5028 24.4062 15.6839L25.4625 18.8662H28.9156C29.1052 18.8662 29.2341 18.9505 29.3024 19.1192C29.3706 19.2879 29.3365 19.4364 29.2 19.5647L26.3156 21.7379L27.3719 24.9978C27.426 25.1789 27.3719 25.3279 27.2094 25.4448C27.0469 25.5618 26.8844 25.555 26.7219 25.4247L24 23.4067ZM24 37.4938L16.4031 39.8999C15.8615 40.081 15.3669 40.0163 14.9195 39.7059C14.4721 39.3954 14.2489 38.9815 14.25 38.464V28.6069C13.2208 27.5203 12.4219 26.2784 11.8531 24.8813C11.2844 23.4843 11 21.9966 11 20.4185C11 16.9516 12.2594 14.0152 14.7781 11.6091C17.2969 9.20304 20.3708 8 24 8C27.6292 8 30.7031 9.20304 33.2219 11.6091C35.7406 14.0152 37 16.9516 37 20.4185C37 21.9966 36.7156 23.4843 36.1469 24.8813C35.5781 26.2784 34.7792 27.5203 33.75 28.6069V38.464C33.75 38.9815 33.5263 39.3954 33.0789 39.7059C32.6315 40.0163 32.1375 40.081 31.5969 39.8999L24 37.4938ZM24 29.7323C26.7083 29.7323 29.0104 28.8268 30.9062 27.0158C32.8021 25.2047 33.75 23.0056 33.75 20.4185C33.75 17.8313 32.8021 15.6322 30.9062 13.8212C29.0104 12.0101 26.7083 11.1046 24 11.1046C21.2917 11.1046 18.9896 12.0101 17.0938 13.8212C15.1979 15.6322 14.25 17.8313 14.25 20.4185C14.25 23.0056 15.1979 25.2047 17.0938 27.0158C18.9896 28.8268 21.2917 29.7323 24 29.7323Z" fill="#212121"/>
</svg>
