<svg width="62" height="62" viewBox="0 0 62 62" fill="none" xmlns="http://www.w3.org/2000/svg">
<path d="M49.0833 25.8333C51.1388 25.8333 53.11 26.6498 54.5634 28.1032C56.0168 29.5566 56.8333 31.5279 56.8333 33.5833V41.3333C56.8333 43.3887 56.0168 45.36 54.5634 46.8134C53.11 48.2668 51.1388 49.0833 49.0833 49.0833V51.5788C49.0833 54.3171 45.8903 55.8129 43.7875 54.0588L37.8148 49.0833H31C28.9446 49.0833 26.9733 48.2668 25.5199 46.8134C24.0665 45.36 23.25 43.3887 23.25 41.3333V33.5833C23.25 31.5279 24.0665 29.5566 25.5199 28.1032C26.9733 26.6498 28.9446 25.8333 31 25.8333H49.0833Z" fill="#FFCD0F"/>
<path d="M41.3337 10.3333C43.3891 10.3333 45.3603 11.1498 46.8137 12.6032C48.2671 14.0566 49.0837 16.0279 49.0837 18.0833V20.6666H28.417C25.6764 20.6666 23.0481 21.7553 21.1102 23.6932C19.1723 25.6311 18.0837 28.2594 18.0837 31V41.3333C18.0837 44.0303 19.117 46.4896 20.8117 48.329L18.0837 50.375C15.955 51.9715 12.917 50.4525 12.917 47.7916V43.9166C10.8616 43.9166 8.89032 43.1001 7.43691 41.6467C5.98351 40.1933 5.16699 38.2221 5.16699 36.1666V18.0833C5.16699 16.0279 5.98351 14.0566 7.43691 12.6032C8.89032 11.1498 10.8616 10.3333 12.917 10.3333H41.3337Z" fill="#212121"/>
</svg>
