<svg xmlns="http://www.w3.org/2000/svg" xmlns:xlink="http://www.w3.org/1999/xlink" width="565" zoomAndPan="magnify" viewBox="0 0 423.75 423.74999" height="565" preserveAspectRatio="xMidYMid meet" version="1.2"><defs><clipPath id="6131f94c96"><path d="M 0 0 L 423.011719 0 L 423.011719 423.011719 L 0 423.011719 Z M 0 0 "/></clipPath><clipPath id="3728e51530"><path d="M 211.503906 0 C 94.695312 0 0 94.695312 0 211.503906 C 0 328.316406 94.695312 423.011719 211.503906 423.011719 C 328.316406 423.011719 423.011719 328.316406 423.011719 211.503906 C 423.011719 94.695312 328.316406 0 211.503906 0 Z M 211.503906 0 "/></clipPath><clipPath id="702abce316"><path d="M 148.410156 349.808594 L 270.933594 349.808594 L 270.933594 382.144531 L 148.410156 382.144531 Z M 148.410156 349.808594 "/></clipPath><clipPath id="8cc4a400f4"><path d="M 209.609375 349.808594 C 175.808594 349.808594 148.410156 357.046875 148.410156 365.976562 C 148.410156 374.90625 175.808594 382.144531 209.609375 382.144531 C 243.410156 382.144531 270.8125 374.90625 270.8125 365.976562 C 270.8125 357.046875 243.410156 349.808594 209.609375 349.808594 Z M 209.609375 349.808594 "/></clipPath><clipPath id="f8ff318501"><path d="M 113.429688 109.753906 L 305.597656 109.753906 L 305.597656 365.777344 L 113.429688 365.777344 Z M 113.429688 109.753906 "/></clipPath><clipPath id="35bb839b9f"><path d="M 206.816406 35.511719 L 303.777344 35.511719 L 303.777344 206.964844 L 206.816406 206.964844 Z M 206.816406 35.511719 "/></clipPath><clipPath id="f7e5ac802a"><path d="M 279.539062 196.796875 C 275.136719 174.78125 272.78125 170.429688 271.246094 165.824219 C 269.707031 161.320312 268.941406 156.8125 267.25 152.257812 C 265.511719 147.34375 263.359375 142.992188 260.800781 137.464844 C 257.523438 130.296875 252.609375 119.851562 248.976562 112.941406 C 246.261719 107.71875 243.957031 103.625 241.347656 99.375 C 238.941406 95.484375 236.945312 92.566406 233.976562 88.367188 C 229.777344 82.53125 222.96875 73.316406 218.363281 67.6875 C 214.984375 63.589844 210.886719 60.265625 209.097656 57.449219 C 208.070312 55.808594 207.664062 54.632812 207.304688 53.199219 C 206.945312 51.714844 206.84375 50.078125 206.996094 48.59375 C 207.097656 47.054688 207.507812 45.519531 208.125 44.085938 C 208.738281 42.703125 209.609375 41.375 210.632812 40.246094 C 211.65625 39.121094 212.933594 38.097656 214.265625 37.378906 C 215.597656 36.664062 217.132812 36.101562 218.617188 35.84375 C 220.101562 35.539062 221.742188 35.539062 223.226562 35.742188 C 224.710938 35.945312 226.296875 36.460938 227.628906 37.125 C 228.957031 37.839844 230.289062 38.8125 231.363281 39.890625 C 232.441406 40.964844 233.363281 42.296875 234.027344 43.625 C 234.691406 45.007812 235.152344 46.542969 235.308594 48.078125 C 235.511719 49.566406 235.460938 51.203125 235.152344 52.6875 C 234.847656 54.171875 234.28125 55.707031 233.515625 56.988281 C 232.746094 58.320312 231.722656 59.546875 230.597656 60.570312 C 229.472656 61.59375 228.089844 62.414062 226.707031 63.027344 C 225.273438 63.589844 223.738281 64 222.203125 64.101562 C 220.664062 64.207031 219.078125 64.050781 217.59375 63.695312 C 216.160156 63.285156 214.675781 62.617188 213.394531 61.800781 C 212.117188 60.980469 210.9375 59.90625 209.964844 58.675781 C 209.042969 57.5 208.277344 56.066406 207.765625 54.632812 C 207.253906 53.25 206.945312 51.613281 206.894531 50.128906 C 206.894531 48.59375 207.152344 47.003906 207.558594 45.570312 C 208.019531 44.085938 208.789062 42.652344 209.660156 41.425781 C 210.582031 40.195312 211.707031 39.070312 212.988281 38.199219 C 214.214844 37.328125 215.648438 36.613281 217.132812 36.203125 C 218.566406 35.742188 220.203125 35.539062 221.691406 35.589844 C 223.226562 35.691406 224.8125 36 226.195312 36.511719 C 227.628906 37.074219 228.601562 37.484375 230.1875 38.8125 C 233.925781 41.886719 240.988281 50.332031 245.953125 56.730469 C 251.023438 63.285156 255.683594 70.554688 260.238281 77.824219 C 264.894531 85.246094 270.273438 94.511719 273.597656 100.910156 C 275.902344 105.3125 276.875 107.363281 278.972656 112.226562 C 282.761719 120.980469 290.542969 139.816406 293.566406 149.136719 C 295.304688 154.5625 295.664062 158.09375 296.839844 162.445312 C 298.019531 166.59375 299.605469 169.972656 300.679688 174.578125 C 302.011719 180.464844 303.753906 191.214844 303.699219 194.902344 C 303.699219 196.335938 303.597656 196.746094 303.238281 197.820312 C 302.675781 199.304688 301.601562 201.503906 300.269531 202.886719 C 298.941406 204.21875 296.789062 205.394531 295.304688 206.011719 C 294.28125 206.421875 293.566406 206.523438 292.4375 206.574219 C 290.851562 206.574219 288.1875 206.164062 286.652344 205.601562 C 285.628906 205.242188 284.964844 204.832031 284.144531 204.117188 C 282.917969 203.09375 281.226562 200.992188 280.460938 199.558594 C 279.894531 198.585938 279.539062 196.796875 279.539062 196.796875 "/></clipPath><clipPath id="42226a06c2"><path d="M 178.574219 65.9375 L 276.265625 65.9375 L 276.265625 146.738281 L 178.574219 146.738281 Z M 178.574219 65.9375 "/></clipPath><clipPath id="f3fa2afe01"><path d="M 196.808594 67.480469 C 242.78125 93.285156 245.800781 95.023438 249.84375 98.09375 C 254.042969 101.320312 258.546875 105.058594 262.132812 108.949219 C 265.511719 112.6875 268.632812 117.34375 270.886719 120.929688 C 272.679688 123.691406 274.214844 126.25 275.03125 128.453125 C 275.648438 129.988281 275.953125 131.167969 276.054688 132.546875 C 276.160156 133.929688 276.054688 135.414062 275.699219 136.746094 C 275.339844 138.128906 274.777344 139.460938 274.007812 140.636719 C 273.242188 141.816406 272.269531 142.890625 271.140625 143.761719 C 270.066406 144.628906 268.789062 145.347656 267.457031 145.859375 C 266.175781 146.320312 264.691406 146.574219 263.308594 146.625 C 261.925781 146.625 260.441406 146.421875 259.113281 146.011719 C 257.78125 145.601562 256.449219 144.9375 255.324219 144.117188 C 254.195312 143.300781 253.171875 142.273438 252.355469 141.148438 C 251.585938 139.972656 250.921875 138.640625 250.511719 137.308594 C 250.101562 135.976562 249.898438 134.546875 249.949219 133.164062 C 250 131.730469 250.304688 130.296875 250.765625 128.964844 C 251.277344 127.683594 251.996094 126.40625 252.867188 125.332031 C 253.738281 124.253906 254.863281 123.230469 256.039062 122.515625 C 257.21875 121.746094 258.546875 121.183594 259.929688 120.875 C 261.261719 120.519531 262.746094 120.414062 264.128906 120.519531 C 265.511719 120.671875 266.945312 121.03125 268.222656 121.59375 C 269.503906 122.105469 270.785156 122.925781 271.808594 123.847656 C 272.832031 124.820312 273.753906 125.945312 274.417969 127.171875 C 275.082031 128.402344 275.597656 129.785156 275.851562 131.167969 C 276.109375 132.496094 276.160156 133.980469 275.953125 135.363281 C 275.75 136.746094 275.339844 138.179688 274.726562 139.410156 C 274.058594 140.636719 273.191406 141.867188 272.21875 142.839844 C 271.246094 143.8125 270.015625 144.679688 268.789062 145.296875 C 267.507812 145.910156 266.125 146.320312 264.742188 146.523438 C 263.359375 146.679688 261.875 146.625 260.492188 146.371094 C 259.113281 146.113281 257.730469 145.601562 256.550781 144.886719 C 255.324219 144.21875 254.402344 143.554688 253.277344 142.222656 C 251.382812 140.074219 249.589844 135.464844 247.234375 132.140625 C 244.625 128.503906 241.605469 124.664062 238.121094 121.335938 C 234.4375 117.90625 231.007812 115.605469 225.476562 112.019531 C 215.957031 105.824219 191.640625 93.949219 185.085938 89.238281 C 182.730469 87.550781 181.757812 86.832031 180.683594 85.246094 C 179.609375 83.660156 178.839844 81.613281 178.636719 79.71875 C 178.429688 77.824219 178.941406 75.367188 179.402344 73.832031 C 179.761719 72.753906 180.121094 72.089844 180.835938 71.21875 C 181.859375 69.9375 183.910156 68.148438 185.292969 67.328125 C 186.316406 66.765625 187.132812 66.5625 188.105469 66.304688 C 189.078125 66.101562 189.949219 65.894531 191.074219 65.996094 C 192.664062 66.101562 196.808594 67.480469 196.808594 67.480469 "/></clipPath><clipPath id="cfcfb2c478"><path d="M 156.496094 56.507812 L 208.039062 56.507812 L 208.039062 93.761719 L 156.496094 93.761719 Z M 156.496094 56.507812 "/></clipPath><clipPath id="0156dceb90"><path d="M 172.542969 57.191406 C 181.503906 60.109375 186.160156 62.003906 190.101562 63.847656 C 194.25 65.742188 199.882812 68.351562 202.492188 70.246094 C 203.925781 71.320312 204.640625 72.039062 205.460938 73.164062 C 206.28125 74.238281 206.945312 75.570312 207.355469 76.851562 C 207.816406 78.128906 208.019531 79.613281 208.019531 80.945312 C 207.96875 82.328125 207.714844 83.761719 207.304688 85.042969 C 206.84375 86.320312 206.125 87.601562 205.308594 88.726562 C 204.4375 89.800781 203.363281 90.773438 202.234375 91.542969 C 201.109375 92.257812 199.777344 92.875 198.449219 93.230469 C 197.117188 93.589844 195.683594 93.691406 194.300781 93.640625 C 192.917969 93.539062 191.535156 93.179688 190.257812 92.667969 C 188.976562 92.15625 187.75 91.390625 186.722656 90.519531 C 185.699219 89.597656 184.777344 88.472656 184.0625 87.292969 C 183.398438 86.117188 182.832031 84.734375 182.578125 83.402344 C 182.320312 82.070312 182.21875 80.640625 182.425781 79.257812 C 182.578125 77.925781 182.988281 76.492188 183.550781 75.261719 C 184.164062 74.035156 184.984375 72.855469 185.957031 71.882812 C 186.878906 70.859375 188.054688 69.992188 189.285156 69.375 C 190.511719 68.761719 191.894531 68.300781 193.226562 68.097656 C 194.609375 67.890625 196.042969 67.941406 197.371094 68.148438 C 198.753906 68.402344 200.085938 68.863281 201.316406 69.53125 C 202.492188 70.195312 203.667969 71.066406 204.589844 72.089844 C 205.511719 73.113281 206.332031 74.289062 206.894531 75.570312 C 207.457031 76.800781 207.816406 78.234375 207.917969 79.5625 C 208.070312 80.945312 207.96875 82.378906 207.664062 83.710938 C 207.355469 85.042969 206.792969 86.421875 206.074219 87.550781 C 205.359375 88.726562 204.386719 89.800781 203.363281 90.722656 C 202.289062 91.59375 201.058594 92.3125 199.777344 92.824219 C 198.5 93.285156 197.066406 93.589844 195.683594 93.640625 C 194.351562 93.691406 193.378906 93.691406 191.589844 93.128906 C 187.183594 91.800781 176.128906 84.835938 170.648438 82.429688 C 167.324219 80.945312 164.507812 80.691406 162.355469 79.257812 C 160.617188 78.128906 159.132812 76.390625 158.261719 75.109375 C 157.597656 74.136719 157.339844 73.472656 157.082031 72.398438 C 156.675781 70.859375 156.417969 68.402344 156.777344 66.5625 C 157.136719 64.667969 158.054688 62.722656 159.234375 61.238281 C 160.410156 59.753906 162.101562 58.421875 163.839844 57.652344 C 165.582031 56.886719 168.039062 56.628906 169.625 56.628906 C 170.753906 56.628906 172.542969 57.191406 172.542969 57.191406 "/></clipPath><clipPath id="8ca217175e"><path d="M 265.023438 56.398438 L 310.28125 56.398438 L 310.28125 231 L 265.023438 231 Z M 265.023438 56.398438 "/></clipPath><clipPath id="c052416915"><path d="M 288.855469 64.15625 C 299.453125 88.984375 300.320312 91.285156 301.601562 96.558594 C 303.957031 106.132812 307.234375 125.484375 308.617188 137.71875 C 309.691406 147.496094 309.945312 156.917969 310.101562 164.289062 C 310.253906 169.511719 310.304688 172.375 309.945312 177.699219 C 309.332031 185.636719 307.4375 199.355469 306.054688 207.238281 C 305.132812 212.5625 302.984375 220.5 303.238281 220.601562 C 303.292969 220.601562 304.007812 218.554688 304.058594 218.554688 C 304.160156 218.605469 303.445312 221.574219 302.78125 222.957031 C 302.164062 224.285156 301.242188 225.617188 300.21875 226.691406 C 299.144531 227.769531 297.863281 228.6875 296.535156 229.40625 C 295.203125 230.070312 293.667969 230.582031 292.234375 230.789062 C 290.75 231.042969 289.109375 230.992188 287.675781 230.738281 C 286.191406 230.480469 284.65625 229.96875 283.378906 229.253906 C 282.046875 228.535156 280.765625 227.5625 279.742188 226.4375 C 278.769531 225.363281 277.847656 224.03125 277.234375 222.648438 C 276.621094 221.265625 276.210938 219.730469 276.109375 218.246094 C 275.953125 216.761719 276.054688 215.175781 276.414062 213.691406 C 276.722656 212.257812 277.335938 210.773438 278.105469 209.492188 C 278.921875 208.210938 279.945312 207.035156 281.125 206.0625 C 282.25 205.089844 283.632812 204.269531 285.066406 203.757812 C 286.449219 203.195312 287.984375 202.886719 289.519531 202.835938 C 291.003906 202.785156 292.59375 202.9375 294.023438 203.398438 C 295.457031 203.808594 296.890625 204.476562 298.121094 205.34375 C 299.347656 206.214844 300.527344 207.289062 301.398438 208.519531 C 302.320312 209.695312 303.035156 211.128906 303.496094 212.5625 C 303.957031 213.996094 304.160156 215.582031 304.160156 217.070312 C 304.160156 218.554688 303.855469 220.140625 303.394531 221.523438 C 302.882812 222.957031 302.113281 224.335938 301.191406 225.515625 C 300.269531 226.742188 299.09375 227.820312 297.863281 228.636719 C 296.585938 229.457031 295.152344 230.121094 293.71875 230.480469 C 292.234375 230.890625 290.648438 231.042969 289.160156 230.941406 C 287.675781 230.839844 286.089844 230.480469 284.707031 229.917969 C 283.324219 229.304688 281.996094 228.484375 280.867188 227.511719 C 279.742188 226.539062 278.71875 225.308594 277.949219 223.980469 C 277.183594 222.699219 276.621094 221.214844 276.3125 219.730469 C 276.003906 218.296875 276.003906 217.375 276.109375 215.175781 C 276.515625 209.542969 280.355469 192.957031 281.433594 185.023438 C 282.148438 179.902344 282.457031 177.34375 282.660156 172.324219 C 282.917969 165.054688 282.761719 154.304688 282.148438 145.5 C 281.585938 136.847656 280.511719 128.453125 279.28125 120.007812 C 278.054688 111.558594 276.976562 102.753906 274.675781 94.820312 C 272.472656 87.34375 267.40625 78.488281 266.023438 73.523438 C 265.355469 71.015625 265 69.582031 265.152344 67.6875 C 265.355469 65.792969 266.328125 63.539062 267.097656 62.105469 C 267.660156 61.132812 268.328125 60.519531 269.042969 59.855469 C 269.761719 59.1875 270.375 58.574219 271.398438 58.113281 C 272.882812 57.398438 275.1875 56.578125 277.132812 56.527344 C 279.027344 56.476562 281.175781 56.9375 282.863281 57.808594 C 284.605469 58.625 286.347656 60.367188 287.371094 61.59375 C 288.136719 62.464844 288.855469 64.15625 288.855469 64.15625 "/></clipPath><clipPath id="1bb9552b31"><path d="M 265.878906 120.691406 L 309.640625 120.691406 L 309.640625 256.863281 L 265.878906 256.863281 Z M 265.878906 120.691406 "/></clipPath><clipPath id="c7f16ec83b"><path d="M 307.695312 132.753906 C 311.6875 187.53125 308.308594 203.65625 306.875 213.023438 C 306.054688 218.449219 305.75 221.675781 304.621094 225.769531 C 303.496094 229.867188 302.0625 233.910156 300.21875 237.699219 C 298.429688 241.386719 295.867188 245.171875 293.617188 248.144531 C 291.773438 250.601562 289.828125 253.058594 287.933594 254.4375 C 286.550781 255.464844 285.21875 255.925781 283.785156 256.332031 C 282.351562 256.742188 280.765625 256.898438 279.28125 256.792969 C 277.796875 256.742188 276.210938 256.382812 274.828125 255.820312 C 273.445312 255.257812 272.0625 254.4375 270.9375 253.464844 C 269.8125 252.492188 268.785156 251.265625 267.96875 249.984375 C 267.199219 248.707031 266.636719 247.222656 266.328125 245.738281 C 266.023438 244.304688 265.921875 242.714844 266.074219 241.230469 C 266.226562 239.746094 266.6875 238.210938 267.300781 236.828125 C 267.917969 235.496094 268.839844 234.167969 269.863281 233.09375 C 270.886719 231.964844 272.164062 231.042969 273.496094 230.328125 C 274.828125 229.609375 276.3125 229.097656 277.796875 228.894531 C 279.28125 228.636719 280.867188 228.636719 282.351562 228.894531 C 283.835938 229.148438 285.375 229.660156 286.703125 230.328125 C 287.984375 231.042969 289.265625 232.015625 290.289062 233.09375 C 291.3125 234.21875 292.234375 235.550781 292.847656 236.878906 C 293.460938 238.261719 293.871094 239.796875 294.078125 241.28125 C 294.230469 242.765625 294.128906 244.355469 293.820312 245.839844 C 293.460938 247.273438 292.898438 248.757812 292.078125 250.035156 C 291.3125 251.316406 290.289062 252.546875 289.160156 253.519531 C 287.984375 254.492188 286.652344 255.308594 285.21875 255.820312 C 283.835938 256.382812 282.300781 256.742188 280.816406 256.792969 C 279.28125 256.898438 277.695312 256.691406 276.261719 256.332031 C 274.828125 255.925781 273.394531 255.257812 272.164062 254.386719 C 270.886719 253.570312 269.761719 252.441406 268.839844 251.265625 C 267.917969 250.035156 267.199219 248.65625 266.738281 247.222656 C 266.226562 245.789062 265.972656 244.25 265.972656 242.714844 C 266.023438 241.230469 266.277344 239.644531 266.738281 238.261719 C 267.199219 236.828125 267.96875 235.601562 268.890625 234.21875 C 269.964844 232.527344 271.652344 231.199219 272.984375 228.945312 C 274.980469 225.769531 277.285156 221.417969 278.871094 216.402344 C 281.074219 209.644531 282.507812 198.484375 283.632812 191.726562 C 284.402344 187.019531 284.914062 183.792969 285.324219 179.75 C 285.679688 175.703125 285.988281 172.480469 285.886719 167.566406 C 285.730469 159.886719 283.53125 144.988281 283.324219 138.332031 C 283.222656 134.902344 283.222656 132.445312 283.53125 130.550781 C 283.785156 129.375 283.941406 128.761719 284.503906 127.789062 C 285.269531 126.40625 286.757812 124.410156 288.242188 123.28125 C 289.777344 122.15625 292.078125 121.386719 293.667969 121.03125 C 294.742188 120.824219 295.457031 120.773438 296.585938 120.980469 C 298.171875 121.183594 300.730469 122.105469 302.113281 122.875 C 303.085938 123.4375 303.699219 124.050781 304.367188 124.765625 C 305.03125 125.484375 305.59375 126.097656 306.105469 127.121094 C 306.824219 128.554688 307.695312 132.753906 307.695312 132.753906 "/></clipPath></defs><g id="82f3bc75f7"><g clip-rule="nonzero" clip-path="url(#6131f94c96)"><g clip-rule="nonzero" clip-path="url(#3728e51530)"><path style=" stroke:none;fill-rule:nonzero;fill:#fe8382;fill-opacity:1;" d="M 0 0 L 423.011719 0 L 423.011719 423.011719 L 0 423.011719 Z M 0 0 "/></g></g><g clip-rule="nonzero" clip-path="url(#702abce316)"><g clip-rule="nonzero" clip-path="url(#8cc4a400f4)"><path style=" stroke:none;fill-rule:nonzero;fill:#2684bb;fill-opacity:1;" d="M 148.410156 349.808594 L 270.808594 349.808594 L 270.808594 382.144531 L 148.410156 382.144531 Z M 148.410156 349.808594 "/></g></g><g clip-rule="nonzero" clip-path="url(#f8ff318501)"><path style=" stroke:none;fill-rule:nonzero;fill:#ffffff;fill-opacity:1;" d="M 209.515625 244.761719 C 188.015625 244.761719 170.589844 227.335938 170.589844 205.835938 C 170.589844 184.339844 188.015625 166.914062 209.515625 166.914062 C 231.011719 166.914062 248.441406 184.339844 248.441406 205.835938 C 248.441406 227.335938 231.011719 244.761719 209.515625 244.761719 Z M 209.335938 109.753906 C 156.265625 109.851562 113.429688 152.769531 113.429688 205.839844 C 113.429688 227.542969 120.628906 247.566406 132.765625 263.652344 L 204.601562 363.261719 C 207.019531 366.613281 212.011719 366.613281 214.425781 363.261719 L 286.261719 263.652344 C 298.398438 247.566406 305.597656 227.542969 305.597656 205.835938 C 305.597656 152.710938 262.484375 109.65625 209.335938 109.753906 "/></g><g clip-rule="nonzero" clip-path="url(#35bb839b9f)"><g clip-rule="nonzero" clip-path="url(#f7e5ac802a)"><path style=" stroke:none;fill-rule:nonzero;fill:#ffffff;fill-opacity:1;" d="M 204.847656 33.542969 L 305.75 33.542969 L 305.75 208.542969 L 204.847656 208.542969 Z M 204.847656 33.542969 "/></g></g><g clip-rule="nonzero" clip-path="url(#42226a06c2)"><g clip-rule="nonzero" clip-path="url(#f3fa2afe01)"><path style=" stroke:none;fill-rule:nonzero;fill:#ffffff;fill-opacity:1;" d="M 176.589844 63.949219 L 278.253906 63.949219 L 278.253906 148.726562 L 176.589844 148.726562 Z M 176.589844 63.949219 "/></g></g><g clip-rule="nonzero" clip-path="url(#cfcfb2c478)"><g clip-rule="nonzero" clip-path="url(#0156dceb90)"><path style=" stroke:none;fill-rule:nonzero;fill:#ffffff;fill-opacity:1;" d="M 154.730469 54.582031 L 210.128906 54.582031 L 210.128906 95.691406 L 154.730469 95.691406 Z M 154.730469 54.582031 "/></g></g><g clip-rule="nonzero" clip-path="url(#8ca217175e)"><g clip-rule="nonzero" clip-path="url(#c052416915)"><path style=" stroke:none;fill-rule:nonzero;fill:#ffffff;fill-opacity:1;" d="M 263.105469 54.480469 L 312.199219 54.480469 L 312.199219 233.019531 L 263.105469 233.019531 Z M 263.105469 54.480469 "/></g></g><g clip-rule="nonzero" clip-path="url(#1bb9552b31)"><g clip-rule="nonzero" clip-path="url(#c7f16ec83b)"><path style=" stroke:none;fill-rule:nonzero;fill:#ffffff;fill-opacity:1;" d="M 263.921875 118.929688 L 313.9375 118.929688 L 313.9375 258.820312 L 263.921875 258.820312 Z M 263.921875 118.929688 "/></g></g></g></svg>